<svg width="395" height="75" viewBox="0 0 395 75" fill="none" xmlns="http://www.w3.org/2000/svg">
<path d="M0.670455 73V3.18182H43.9659V12.25H11.2045V33.5227H40.8636V42.5568H11.2045V73H0.670455ZM71.1534 74.1591C67.8352 74.1591 64.8352 73.5455 62.1534 72.3182C59.4716 71.0682 57.3466 69.2614 55.7784 66.8977C54.233 64.5341 53.4602 61.6364 53.4602 58.2045C53.4602 55.25 54.0284 52.8182 55.1648 50.9091C56.3011 49 57.8352 47.4886 59.767 46.375C61.6989 45.2614 63.858 44.4205 66.2443 43.8523C68.6307 43.2841 71.0625 42.8523 73.5398 42.5568C76.6761 42.1932 79.2216 41.8977 81.1761 41.6705C83.1307 41.4205 84.5511 41.0227 85.4375 40.4773C86.3239 39.9318 86.767 39.0455 86.767 37.8182V37.5795C86.767 34.6023 85.9261 32.2955 84.2443 30.6591C82.5852 29.0227 80.108 28.2045 76.8125 28.2045C73.3807 28.2045 70.6761 28.9659 68.6989 30.4886C66.7443 31.9886 65.392 33.6591 64.642 35.5L55.0625 33.3182C56.1989 30.1364 57.858 27.5682 60.0398 25.6136C62.2443 23.6364 64.7784 22.2045 67.642 21.3182C70.5057 20.4091 73.517 19.9545 76.6761 19.9545C78.767 19.9545 80.983 20.2045 83.3239 20.7045C85.6875 21.1818 87.892 22.0682 89.9375 23.3636C92.0057 24.6591 93.6989 26.5114 95.017 28.9205C96.3352 31.3068 96.9943 34.4091 96.9943 38.2273V73H87.0398V65.8409H86.6307C85.9716 67.1591 84.983 68.4545 83.6648 69.7273C82.3466 71 80.6534 72.0568 78.5852 72.8977C76.517 73.7386 74.0398 74.1591 71.1534 74.1591ZM73.3693 65.9773C76.1875 65.9773 78.5966 65.4205 80.5966 64.3068C82.6193 63.1932 84.1534 61.7386 85.1989 59.9432C86.267 58.125 86.8011 56.1818 86.8011 54.1136V47.3636C86.4375 47.7273 85.733 48.0682 84.6875 48.3864C83.6648 48.6818 82.4943 48.9432 81.1761 49.1705C79.858 49.375 78.5739 49.5682 77.3239 49.75C76.0739 49.9091 75.0284 50.0455 74.1875 50.1591C72.2102 50.4091 70.4034 50.8295 68.767 51.4205C67.1534 52.0114 65.858 52.8636 64.8807 53.9773C63.9261 55.0682 63.4489 56.5227 63.4489 58.3409C63.4489 60.8636 64.3807 62.7727 66.2443 64.0682C68.108 65.3409 70.483 65.9773 73.3693 65.9773ZM110.571 73V20.6364H120.423V28.9545H120.969C121.923 26.1364 123.605 23.9205 126.014 22.3068C128.446 20.6705 131.196 19.8523 134.264 19.8523C134.901 19.8523 135.651 19.875 136.514 19.9205C137.401 19.9659 138.094 20.0227 138.594 20.0909V29.8409C138.185 29.7273 137.457 29.6023 136.412 29.4659C135.366 29.3068 134.321 29.2273 133.276 29.2273C130.866 29.2273 128.719 29.7386 126.832 30.7614C124.969 31.7614 123.491 33.1591 122.401 34.9545C121.31 36.7273 120.764 38.75 120.764 41.0227V73H110.571ZM147.415 73V20.6364H157.608V73H147.415ZM152.562 12.5568C150.79 12.5568 149.267 11.9659 147.994 10.7841C146.744 9.57954 146.119 8.14772 146.119 6.48863C146.119 4.80682 146.744 3.375 147.994 2.19318C149.267 0.988634 150.79 0.386362 152.562 0.386362C154.335 0.386362 155.847 0.988634 157.097 2.19318C158.369 3.375 159.006 4.80682 159.006 6.48863C159.006 8.14772 158.369 9.57954 157.097 10.7841C155.847 11.9659 154.335 12.5568 152.562 12.5568ZM193.378 74.0568C188.31 74.0568 183.946 72.9091 180.287 70.6136C176.651 68.2955 173.855 65.1023 171.901 61.0341C169.946 56.9659 168.969 52.3068 168.969 47.0568C168.969 41.7386 169.969 37.0455 171.969 32.9773C173.969 28.8864 176.787 25.6932 180.423 23.3977C184.06 21.1023 188.344 19.9545 193.276 19.9545C197.253 19.9545 200.798 20.6932 203.912 22.1705C207.026 23.625 209.537 25.6705 211.446 28.3068C213.378 30.9432 214.526 34.0227 214.889 37.5455H204.969C204.423 35.0909 203.173 32.9773 201.219 31.2045C199.287 29.4318 196.696 28.5455 193.446 28.5455C190.605 28.5455 188.116 29.2955 185.98 30.7955C183.866 32.2727 182.219 34.3864 181.037 37.1364C179.855 39.8636 179.264 43.0909 179.264 46.8182C179.264 50.6364 179.844 53.9318 181.003 56.7045C182.162 59.4773 183.798 61.625 185.912 63.1477C188.048 64.6705 190.56 65.4318 193.446 65.4318C195.378 65.4318 197.128 65.0795 198.696 64.375C200.287 63.6477 201.616 62.6136 202.685 61.2727C203.776 59.9318 204.537 58.3182 204.969 56.4318H214.889C214.526 59.8182 213.423 62.8409 211.582 65.5C209.741 68.1591 207.276 70.25 204.185 71.7727C201.116 73.2955 197.514 74.0568 193.378 74.0568ZM249.21 73H226.608V3.18182H249.926C256.767 3.18182 262.642 4.57954 267.551 7.375C272.46 10.1477 276.222 14.1364 278.835 19.3409C281.472 24.5227 282.79 30.7386 282.79 37.9886C282.79 45.2614 281.46 51.5114 278.801 56.7386C276.165 61.9659 272.347 65.9886 267.347 68.8068C262.347 71.6023 256.301 73 249.21 73ZM237.142 63.7955H248.631C253.949 63.7955 258.369 62.7955 261.892 60.7955C265.415 58.7727 268.051 55.8523 269.801 52.0341C271.551 48.1932 272.426 43.5114 272.426 37.9886C272.426 32.5114 271.551 27.8636 269.801 24.0455C268.074 20.2273 265.494 17.3295 262.062 15.3523C258.631 13.375 254.369 12.3864 249.278 12.3864H237.142V63.7955ZM317.639 74.0568C312.48 74.0568 308.037 72.9545 304.31 70.75C300.605 68.5227 297.741 65.3977 295.719 61.375C293.719 57.3295 292.719 52.5909 292.719 47.1591C292.719 41.7955 293.719 37.0682 295.719 32.9773C297.741 28.8864 300.56 25.6932 304.173 23.3977C307.81 21.1023 312.06 19.9545 316.923 19.9545C319.878 19.9545 322.741 20.4432 325.514 21.4205C328.287 22.3977 330.776 23.9318 332.98 26.0227C335.185 28.1136 336.923 30.8295 338.196 34.1705C339.469 37.4886 340.105 41.5227 340.105 46.2727V49.8864H298.48V42.25H330.116C330.116 39.5682 329.571 37.1932 328.48 35.125C327.389 33.0341 325.855 31.3864 323.878 30.1818C321.923 28.9773 319.628 28.375 316.991 28.375C314.128 28.375 311.628 29.0795 309.491 30.4886C307.378 31.875 305.741 33.6932 304.582 35.9432C303.446 38.1705 302.878 40.5909 302.878 43.2045V49.1705C302.878 52.6705 303.491 55.6477 304.719 58.1023C305.969 60.5568 307.707 62.4318 309.935 63.7273C312.162 65 314.764 65.6364 317.741 65.6364C319.673 65.6364 321.435 65.3636 323.026 64.8182C324.616 64.25 325.991 63.4091 327.151 62.2955C328.31 61.1818 329.196 59.8068 329.81 58.1705L339.457 59.9091C338.685 62.75 337.298 65.2386 335.298 67.375C333.321 69.4886 330.832 71.1364 327.832 72.3182C324.855 73.4773 321.457 74.0568 317.639 74.0568ZM394.71 20.6364L375.722 73H364.812L345.79 20.6364H356.733L369.994 60.9318H370.54L383.767 20.6364H394.71Z" fill="white"/>
</svg>
